<svg width="796.135009765625px" height="121.40498046875px" xmlns="http://www.w3.org/2000/svg" viewBox="-148.0675048828125 14.297509765625001 796.135009765625 121.40498046875" style="background: rgba(0, 0, 0, 0);" preserveAspectRatio="xMidYMid"><defs><filter id="editing-raise" x="-100%" y="-100%" width="300%" height="300%"><feFlood flood-color="#ccc" result="flood-surface"></feFlood><feFlood flood-color="#777" result="flood-extrude"></feFlood><feMorphology operator="erode" in="SourceAlpha" radius="1" result="erode"></feMorphology><feConvolveMatrix in="erode" result="shadow" order="11,8" divisor="1" kernelMatrix="0 0 0 1 1 1 1 1 0 0 0 0 0 1 0 0 0 0 0 1 0 0 0 0 1 0 0 0 0 0 1 0 0 0 0 1 0 0 0 0 0 1 0 0 0 0 1 0 0 0 0 0 1 0 0 0 0 0 1 0 0 0 1 0 0 0 0 0 0 1 1 0 1 1 0 0 0 0 0 0 0 0 1 0 0 0 0 0"></feConvolveMatrix><feOffset dx="0" dy="4" in="shadow" result="offset"></feOffset><feGaussianBlur in="offset" stdDeviation="0.2" result="blur"></feGaussianBlur><feComposite operator="in" in="flood-extrude" in2="blur" result="extrude"></feComposite><feMorphology operator="erode" in="SourceAlpha" radius="1" result="erode2"></feMorphology><feConvolveMatrix in="erode2" result="out" order="4,4" divisor="1" kernelMatrix="0 1 1 0 1 0 0 1 1 0 0 1 0 1 1 0 "></feConvolveMatrix><feComposite operator="in" in="flood-surface" in2="out" result="text"></feComposite><feMerge><feMergeNode in="extrude"></feMergeNode><feMergeNode in="text"></feMergeNode></feMerge></filter></defs><g filter="url(#editing-raise)"><g transform="translate(-35.79374027252197, 104.76000022888184)"><path d="M27.01-10.82L27.01-10.82L27.01-10.82Q28.61-9.73 28.61-7.33L28.61-7.33L28.61-7.33Q28.61-4.93 27.39-3.39L27.39-3.39L27.39-3.39Q26.18-1.86 24.19-0.83L24.19-0.83L24.19-0.83Q20.10 1.28 15.68 1.28L15.68 1.28L15.68 1.28Q11.26 1.28 8.67 0.32L8.67 0.32L8.67 0.32Q6.08-0.64 4.35-2.43L4.35-2.43L4.35-2.43Q0.96-5.82 0.96-12.03L0.96-12.03L0.96-12.03Q0.96-21.70 6.21-27.58L6.21-27.58L6.21-27.58Q11.84-33.92 21.63-33.92L21.63-33.92L21.63-33.92Q27.71-33.92 30.72-31.36L30.72-31.36L30.72-31.36Q32.96-29.44 32.96-26.30L32.96-26.30L32.96-26.30Q32.96-15.04 13.50-15.04L13.50-15.04L13.50-15.04Q13.25-13.38 13.25-11.97L13.25-11.97L13.25-11.97Q13.25-9.02 14.56-7.90L14.56-7.90L14.56-7.90Q15.87-6.78 18.30-6.78L18.30-6.78L18.30-6.78Q20.74-6.78 23.33-7.90L23.33-7.90L23.33-7.90Q25.92-9.02 27.01-10.82ZM13.95-17.79L13.95-17.79L13.95-17.79Q18.50-17.79 21.12-20.61L21.12-20.61L21.12-20.61Q23.74-23.30 23.74-27.58L23.74-27.58L23.74-27.58Q23.74-29.06 23.20-29.86L23.20-29.86L23.20-29.86Q22.66-30.66 21.57-30.66L21.57-30.66L21.57-30.66Q20.48-30.66 19.55-30.24L19.55-30.24L19.55-30.24Q18.62-29.82 17.66-28.42L17.66-28.42L17.66-28.42Q15.30-25.22 13.95-17.79ZM55.30-33.92L55.30-33.92L55.30-33.92Q57.60-33.92 59.39-33.41L59.39-33.41L59.39-33.41Q59.46-33.66 59.58-34.37L59.58-34.37L59.90-36.35L59.90-36.35Q60.16-37.63 60.54-39.74L60.54-39.74L61.57-44.80L74.30-46.08L67.20-8.96L67.20-8.96Q67.14-8.58 67.14-7.94L67.14-7.94L67.14-6.91L67.14-6.91Q67.14-5.50 67.84-4.45L67.84-4.45L67.84-4.45Q68.54-3.39 69.70-3.39L69.70-3.39L69.70-3.39Q68.42-0.38 64.51 0.90L64.51 0.90L64.51 0.90Q63.17 1.28 61.28 1.28L61.28 1.28L61.28 1.28Q59.39 1.28 57.66 0.29L57.66 0.29L57.66 0.29Q55.94-0.70 55.42-2.37L55.42-2.37L55.42-2.37Q54.40-0.70 52.35 0.29L52.35 0.29L52.35 0.29Q50.30 1.28 47.33 1.28L47.33 1.28L47.33 1.28Q44.35 1.28 41.89 0.51L41.89 0.51L41.89 0.51Q39.42-0.26 37.89-1.92L37.89-1.92L37.89-1.92Q35.07-5.18 35.07-12.61L35.07-12.61L35.07-12.61Q35.07-22.21 40.70-28.03L40.70-28.03L40.70-28.03Q46.34-33.92 55.30-33.92ZM54.85-30.08L54.85-30.08L54.85-30.08Q52.48-30.08 51.20-27.52L51.20-27.52L51.20-27.52Q49.92-24.96 48.61-18.62L48.61-18.62L48.61-18.62Q47.30-12.29 47.30-6.59L47.30-6.59L47.30-6.59Q47.30-2.69 49.60-2.69L49.60-2.69L49.60-2.69Q51.65-2.69 53.09-4.74L53.09-4.74L53.09-4.74Q54.53-6.78 55.10-10.18L55.10-10.18L58.56-28.93L58.56-28.93Q57.22-30.08 54.85-30.08ZM79.68-26.75L79.68-26.75L79.68-26.75Q81.86-29.82 85.15-31.87L85.15-31.87L85.15-31.87Q88.45-33.92 92.48-33.92L92.48-33.92L92.48-33.92Q96.51-33.92 98.43-32.64L98.43-32.64L110.98-33.92L106.62-9.34L106.62-9.34Q104.38 3.20 99.65 8.13L99.65 8.13L99.65 8.13Q95.10 12.80 86.27 12.80L86.27 12.80L86.27 12.80Q79.55 12.80 75.71 10.69L75.71 10.69L75.71 10.69Q71.87 8.58 71.87 5.06L71.87 5.06L71.87 5.06Q71.87 2.43 73.86 0.93L73.86 0.93L73.86 0.93Q75.84-0.58 78.91-0.58L78.91-0.58L78.91-0.58Q81.60-0.58 83.65 0.64L83.65 0.64L83.65 0.64Q84.86 1.28 85.44 2.18L85.44 2.18L85.44 2.18Q83.97 3.46 83.97 5.57L83.97 5.57L83.97 5.57Q83.97 8.32 86.53 8.32L86.53 8.32L86.53 8.32Q90.82 8.32 93.25-1.79L93.25-1.79L93.25-1.79Q93.95-4.54 94.53-7.30L94.53-7.30L94.53-7.30Q91.65-3.78 85.12-3.78L85.12-3.78L85.12-3.78Q80.58-3.78 77.95-5.95L77.95-5.95L77.95-5.95Q75.33-8.13 75.33-13.25L75.33-13.25L75.33-13.25Q75.33-16.45 76.42-20.06L76.42-20.06L76.42-20.06Q77.50-23.68 79.68-26.75ZM88-13.06L88-13.06L88-13.06Q88-8.70 90.24-8.70L90.24-8.70L90.24-8.70Q91.78-8.70 93.25-10.37L93.25-10.37L93.25-10.37Q94.40-11.71 94.85-13.70L94.85-13.70L98.11-30.14L98.11-30.14Q97.79-30.21 97.47-30.34L97.47-30.34L97.47-30.34Q96.83-30.59 96-30.59L96-30.59L96-30.59Q92.10-30.59 89.79-24.19L89.79-24.19L89.79-24.19Q88-19.20 88-13.06ZM116.26-1.92L116.26-1.92L116.26-1.92Q114.75-3.58 114.08-6.21L114.08-6.21L114.08-6.21Q113.41-8.83 113.41-13.12L113.41-13.12L113.41-13.12Q113.41-17.41 114.88-21.31L114.88-21.31L114.88-21.31Q116.35-25.22 119.04-28.03L119.04-28.03L119.04-28.03Q124.54-33.92 133.63-33.92L133.63-33.92L133.63-33.92Q136.90-33.92 139.26-32.83L139.26-32.83L150.21-33.92L145.47-8.96L145.47-8.96Q145.28-8.19 145.28-6.78L145.28-6.78L145.28-6.78Q145.28-5.38 146.14-4.48L146.14-4.48L146.14-4.48Q147.01-3.58 148.29-3.46L148.29-3.46L148.29-3.46Q147.65-1.28 145.31 0L145.31 0L145.31 0Q142.98 1.28 140.35 1.28L140.35 1.28L140.35 1.28Q137.73 1.28 135.97 0.29L135.97 0.29L135.97 0.29Q134.21-0.70 133.70-2.37L133.70-2.37L133.70-2.37Q132.67-0.77 130.50 0.26L130.50 0.26L130.50 0.26Q128.32 1.28 125.41 1.28L125.41 1.28L125.41 1.28Q122.50 1.28 120.13 0.51L120.13 0.51L120.13 0.51Q117.76-0.26 116.26-1.92ZM129.76-27.90L129.76-27.90L129.76-27.90Q129.02-26.75 128.38-24.80L128.38-24.80L128.38-24.80Q127.74-22.85 126.69-17.63L126.69-17.63L126.69-17.63Q125.63-12.42 125.63-8.70L125.63-8.70L125.63-8.70Q125.63-4.99 126.21-3.90L126.21-3.90L126.21-3.90Q126.78-2.82 127.81-2.82L127.81-2.82L127.81-2.82Q129.86-2.82 131.36-4.77L131.36-4.77L131.36-4.77Q132.86-6.72 133.44-10.18L133.44-10.18L136.83-28.93L136.83-28.93Q135.49-30.08 133.92-30.08L133.92-30.08L133.92-30.08Q132.35-30.08 131.42-29.57L131.42-29.57L131.42-29.57Q130.50-29.06 129.76-27.90ZM173.70-17.98L173.70-17.98L173.70-17.98Q176-22.08 176-26.24L176-26.24L176-26.24Q176-28.99 174.02-28.99L174.02-28.99L174.02-28.99Q172.48-28.99 170.88-26.37L170.88-26.37L170.88-26.37Q169.22-23.74 168.70-20.35L168.70-20.35L165.38 0L152.13 1.28L158.66-32.64L169.22-33.92L168.06-27.46L168.06-27.46Q171.20-33.92 178.24-33.92L178.24-33.92L178.24-33.92Q181.95-33.92 183.97-32L183.97-32L183.97-32Q185.98-30.08 185.98-26.14L185.98-26.14L185.98-26.14Q185.98-22.21 183.39-19.71L183.39-19.71L183.39-19.71Q180.80-17.22 176.38-17.22L176.38-17.22L176.38-17.22Q174.46-17.22 173.70-17.98ZM206.14-22.46L206.14-22.46L206.14-22.46Q207.04-24.83 207.04-26.88L207.04-26.88L207.04-26.88Q207.04-30.66 203.97-30.66L203.97-30.66L203.97-30.66Q202.37-30.66 201.06-29.22L201.06-29.22L201.06-29.22Q199.74-27.78 199.74-25.98L199.74-25.98L199.74-25.98Q199.74-24.70 200.77-23.68L200.77-23.68L200.77-23.68Q202.24-22.27 206.02-19.97L206.02-19.97L206.02-19.97Q209.79-17.66 211.23-15.78L211.23-15.78L211.23-15.78Q212.67-13.89 212.67-11.30L212.67-11.30L212.67-11.30Q212.67-8.70 211.42-6.34L211.42-6.34L211.42-6.34Q210.18-3.97 207.94-2.30L207.94-2.30L207.94-2.30Q203.14 1.28 195.46 1.28L195.46 1.28L195.46 1.28Q191.30 1.28 188.10-0.90L188.10-0.90L188.10-0.90Q184.90-3.01 184.90-5.50L184.90-5.50L184.90-5.50Q184.90-8 186.72-9.47L186.72-9.47L186.72-9.47Q188.54-10.94 191.23-10.94L191.23-10.94L191.23-10.94Q193.92-10.94 195.58-9.92L195.58-9.92L195.58-9.92Q194.75-7.81 194.75-6.40L194.75-6.40L194.75-6.40Q194.75-2.18 198.34-2.18L198.34-2.18L198.34-2.18Q199.87-2.18 200.90-3.14L200.90-3.14L200.90-3.14Q201.92-4.10 201.92-5.76L201.92-5.76L201.92-5.76Q201.92-9.02 196.42-12.48L196.42-12.48L196.42-12.48Q191.94-15.42 190.91-16.58L190.91-16.58L190.91-16.58Q189.18-18.62 189.18-21.18L189.18-21.18L189.18-21.18Q189.18-23.74 190.40-26.18L190.40-26.18L190.40-26.18Q191.62-28.61 193.86-30.34L193.86-30.34L193.86-30.34Q198.53-33.92 206.66-33.92L206.66-33.92L206.66-33.92Q210.82-33.92 213.28-32.26L213.28-32.26L213.28-32.26Q215.74-30.59 215.74-27.78L215.74-27.78L215.74-27.78Q215.74-24.96 214.05-23.36L214.05-23.36L214.05-23.36Q212.35-21.76 209.28-21.76L209.28-21.76L209.28-21.76Q207.17-21.76 206.14-22.46ZM233.47-3.52L233.47-3.52L233.47-3.52Q231.49 1.28 225.15 1.28L225.15 1.28L225.15 1.28Q221.89 1.28 219.84-0.96L219.84-0.96L219.84-0.96Q218.11-2.94 218.11-4.93L218.11-4.93L218.11-4.93Q218.11-10.11 220.48-20.22L220.48-20.22L222.85-32.64L235.84-33.92L231.94-13.70L231.94-13.70Q230.85-8.96 230.85-7.30L230.85-7.30L230.85-7.30Q230.85-3.65 233.47-3.52ZM224-41.54L224-41.54L224-41.54Q224-44.03 226.08-45.38L226.08-45.38L226.08-45.38Q228.16-46.72 231.17-46.72L231.17-46.72L231.17-46.72Q234.18-46.72 236-45.38L236-45.38L236-45.38Q237.82-44.03 237.82-41.54L237.82-41.54L237.82-41.54Q237.82-39.04 235.81-37.76L235.81-37.76L235.81-37.76Q233.79-36.48 230.78-36.48L230.78-36.48L230.78-36.48Q227.78-36.48 225.89-37.76L225.89-37.76L225.89-37.76Q224-39.04 224-41.54ZM254.21-3.52L254.21-3.52L254.21-3.52Q252.22 1.28 245.89 1.28L245.89 1.28L245.89 1.28Q242.69 1.28 240.64-0.96L240.64-0.96L240.64-0.96Q238.98-2.82 238.98-4.93L238.98-4.93L238.98-4.93Q238.98-9.73 241.22-20.22L241.22-20.22L245.89-44.80L258.88-46.08L252.67-13.70L252.67-13.70Q251.58-8.96 251.58-7.30L251.58-7.30L251.58-7.30Q251.58-3.65 254.21-3.52ZM282.88-31.55L282.88-31.55L282.88-31.55Q284.99-33.92 288.64-33.92L288.64-33.92L288.64-33.92Q290.88-33.92 292.61-32.70L292.61-32.70L292.61-32.70Q294.34-31.49 294.34-29.22L294.34-29.22L294.34-29.22Q294.34-26.94 293.63-24.51L293.63-24.51L293.63-24.51Q292.93-22.08 291.84-19.58L291.84-19.58L291.84-19.58Q289.66-14.72 286.66-10.69L286.66-10.69L286.66-10.69Q282.43-4.86 278.37-1.79L278.37-1.79L278.37-1.79Q274.30 1.28 269.89 1.28L269.89 1.28L269.89 1.28Q266.30 1.28 264.13 0.45L264.13 0.45L264.13 0.45Q263.74-12.99 263.26-17.79L263.26-17.79L263.26-17.79Q262.78-22.59 262.40-25.22L262.40-25.22L262.40-25.22Q261.76-30.34 259.84-31.55L259.84-31.55L259.84-31.55Q261.31-32.83 262.75-33.38L262.75-33.38L262.75-33.38Q264.19-33.92 267.17-33.92L267.17-33.92L267.17-33.92Q270.14-33.92 272.26-31.58L272.26-31.58L272.26-31.58Q274.37-29.25 274.78-25.12L274.78-25.12L274.78-25.12Q275.20-20.99 275.20-16L275.20-16L275.20-16Q275.20-11.01 274.82-4.99L274.82-4.99L274.82-4.99Q276.80-6.40 278.91-10.69L278.91-10.69L278.91-10.69Q281.79-16.64 282.82-23.81L282.82-23.81L282.82-23.81Q283.14-25.98 283.14-28.29L283.14-28.29L283.14-28.29Q283.14-30.59 282.88-31.55ZM298.85-1.92L298.85-1.92L298.85-1.92Q297.34-3.58 296.67-6.21L296.67-6.21L296.67-6.21Q296-8.83 296-13.12L296-13.12L296-13.12Q296-17.41 297.47-21.31L297.47-21.31L297.47-21.31Q298.94-25.22 301.63-28.03L301.63-28.03L301.63-28.03Q307.14-33.92 316.22-33.92L316.22-33.92L316.22-33.92Q319.49-33.92 321.86-32.83L321.86-32.83L332.80-33.92L328.06-8.96L328.06-8.96Q327.87-8.19 327.87-6.78L327.87-6.78L327.87-6.78Q327.87-5.38 328.74-4.48L328.74-4.48L328.74-4.48Q329.60-3.58 330.88-3.46L330.88-3.46L330.88-3.46Q330.24-1.28 327.90 0L327.90 0L327.90 0Q325.57 1.28 322.94 1.28L322.94 1.28L322.94 1.28Q320.32 1.28 318.56 0.29L318.56 0.29L318.56 0.29Q316.80-0.70 316.29-2.37L316.29-2.37L316.29-2.37Q315.26-0.77 313.09 0.26L313.09 0.26L313.09 0.26Q310.91 1.28 308 1.28L308 1.28L308 1.28Q305.09 1.28 302.72 0.51L302.72 0.51L302.72 0.51Q300.35-0.26 298.85-1.92ZM312.35-27.90L312.35-27.90L312.35-27.90Q311.62-26.75 310.98-24.80L310.98-24.80L310.98-24.80Q310.34-22.85 309.28-17.63L309.28-17.63L309.28-17.63Q308.22-12.42 308.22-8.70L308.22-8.70L308.22-8.70Q308.22-4.99 308.80-3.90L308.80-3.90L308.80-3.90Q309.38-2.82 310.40-2.82L310.40-2.82L310.40-2.82Q312.45-2.82 313.95-4.77L313.95-4.77L313.95-4.77Q315.46-6.72 316.03-10.18L316.03-10.18L319.42-28.93L319.42-28.93Q318.08-30.08 316.51-30.08L316.51-30.08L316.51-30.08Q314.94-30.08 314.02-29.57L314.02-29.57L314.02-29.57Q313.09-29.06 312.35-27.90ZM334.34-3.78L334.34-3.78L334.34-3.78Q334.34-6.21 336.22-7.55L336.22-7.55L336.22-7.55Q338.11-8.90 340.80-8.90L340.80-8.90L340.80-8.90Q343.49-8.90 345.12-7.55L345.12-7.55L345.12-7.55Q346.75-6.21 346.75-3.78L346.75-3.78L346.75-3.78Q346.75-1.34 344.93-0.03L344.93-0.03L344.93-0.03Q343.10 1.28 340.42 1.28L340.42 1.28L340.42 1.28Q337.73 1.28 336.03-0.03L336.03-0.03L336.03-0.03Q334.34-1.34 334.34-3.78ZM384.13-26.62L384.13-26.62L384.13-26.62Q384.13-23.94 381.89-22.27L381.89-22.27L381.89-22.27Q379.65-20.61 376-20.61L376-20.61L376-20.61Q374.46-20.61 373.57-21.06L373.57-21.06L373.57-21.06Q374.27-22.72 374.50-24.80L374.50-24.80L374.50-24.80Q374.72-26.88 374.72-27.46L374.72-27.46L374.72-27.46Q374.72-30.14 372.86-30.14L372.86-30.14L372.86-30.14Q371.58-30.14 370.14-28.54L370.14-28.54L370.14-28.54Q368.70-26.94 367.49-24.45L367.49-24.45L367.49-24.45Q364.80-18.69 364.80-12.86L364.80-12.86L364.80-12.86Q364.80-9.66 366.02-8.22L366.02-8.22L366.02-8.22Q367.23-6.78 369.92-6.78L369.92-6.78L369.92-6.78Q373.63-6.78 376.58-9.86L376.58-9.86L376.58-9.86Q377.41-10.82 377.86-11.90L377.86-11.90L377.86-11.90Q380.29-10.62 380.29-7.10L380.29-7.10L380.29-7.10Q380.29-3.52 376.32-1.15L376.32-1.15L376.32-1.15Q372.22 1.28 365.70 1.28L365.70 1.28L365.70 1.28Q352.70 1.28 352.70-12.48L352.70-12.48L352.70-12.48Q352.70-22.53 358.40-28.29L358.40-28.29L358.40-28.29Q363.90-33.92 374.02-33.92L374.02-33.92L374.02-33.92Q384.13-33.92 384.13-26.62ZM399.81 1.28L399.81 1.28L399.81 1.28Q385.73 1.28 385.73-11.97L385.73-11.97L385.73-11.97Q385.73-21.38 390.91-27.46L390.91-27.46L390.91-27.46Q396.42-33.92 405.95-33.92L405.95-33.92L405.95-33.92Q412.86-33.92 416.38-30.72L416.38-30.72L416.38-30.72Q419.90-27.52 419.90-20.80L419.90-20.80L419.90-20.80Q419.90-10.56 414.40-4.61L414.40-4.61L414.40-4.61Q409.02 1.28 399.81 1.28ZM401.47-26.56L401.47-26.56L401.47-26.56Q400.70-24.83 400.10-22.24L400.10-22.24L400.10-22.24Q399.49-19.65 398.72-15.55L398.72-15.55L398.72-15.55Q397.95-11.46 397.95-6.40L397.95-6.40L397.95-6.40Q397.95-4.74 398.50-3.65L398.50-3.65L398.50-3.65Q399.04-2.56 400.51-2.56L400.51-2.56L400.51-2.56Q401.98-2.56 402.91-3.26L402.91-3.26L402.91-3.26Q403.84-3.97 404.54-5.63L404.54-5.63L404.54-5.63Q405.82-8.58 406.85-14.05L406.85-14.05L406.85-14.05Q407.87-19.52 407.97-21.89L407.97-21.89L407.97-21.89Q408.06-24.26 408.06-26.02L408.06-26.02L408.06-26.02Q408.06-27.78 407.55-28.93L407.55-28.93L407.55-28.93Q407.04-30.08 405.60-30.08L405.60-30.08L405.60-30.08Q404.16-30.08 403.20-29.18L403.20-29.18L403.20-29.18Q402.24-28.29 401.47-26.56ZM469.76 1.28L469.76 1.28L469.76 1.28Q462.02 1.28 462.02-4.74L462.02-4.74L462.02-4.74Q462.02-7.36 463.14-12.45L463.14-12.45L463.14-12.45Q464.26-17.54 464.64-19.58L464.64-19.58L464.64-19.58Q465.54-24.26 465.54-25.73L465.54-25.73L465.54-25.73Q465.54-28.99 463.10-28.99L463.10-28.99L463.10-28.99Q461.50-28.99 459.97-26.78L459.97-26.78L459.97-26.78Q458.43-24.58 457.73-20.16L457.73-20.16L453.76 0L441.28 1.28L444.74-16.13L444.74-16.13Q445.31-19.01 445.82-22.27L445.82-22.27L445.82-22.27Q446.34-25.54 446.34-26.05L446.34-26.05L446.34-26.05Q446.34-28.99 444.16-28.99L444.16-28.99L444.16-28.99Q442.69-28.99 441.09-26.82L441.09-26.82L441.09-26.82Q439.49-24.64 438.59-20.16L438.59-20.16L434.69 0L422.08 1.28L428.80-32.64L439.23-33.92L438.14-27.46L438.14-27.46Q439.81-30.91 442.88-32.42L442.88-32.42L442.88-32.42Q445.95-33.92 450.75-33.92L450.75-33.92L450.75-33.92Q453.50-33.92 455.30-32.58L455.30-32.58L455.30-32.58Q457.09-31.23 457.66-29.06L457.66-29.06L457.66-29.06Q458.75-31.30 461.54-32.61L461.54-32.61L461.54-32.61Q464.32-33.92 467.74-33.92L467.74-33.92L467.74-33.92Q471.17-33.92 472.86-33.18L472.86-33.18L472.86-33.18Q474.56-32.45 475.58-31.23L475.58-31.23L475.58-31.23Q477.31-28.99 477.31-24.90L477.31-24.90L477.31-24.90Q477.31-20.86 475.58-12.48L475.58-12.48L475.58-12.48Q474.69-8.38 474.69-6.88L474.69-6.88L474.69-6.88Q474.69-5.38 475.55-4.48L475.55-4.48L475.55-4.48Q476.42-3.58 477.70-3.46L477.70-3.46L477.70-3.46Q477.06-1.28 474.85 0L474.85 0L474.85 0Q472.64 1.28 469.76 1.28ZM480.70-3.78L480.70-3.78L480.70-3.78Q480.70-6.21 482.59-7.55L482.59-7.55L482.59-7.55Q484.48-8.90 487.17-8.90L487.17-8.90L487.17-8.90Q489.86-8.90 491.49-7.55L491.49-7.55L491.49-7.55Q493.12-6.21 493.12-3.78L493.12-3.78L493.12-3.78Q493.12-1.34 491.30-0.03L491.30-0.03L491.30-0.03Q489.47 1.28 486.78 1.28L486.78 1.28L486.78 1.28Q484.10 1.28 482.40-0.03L482.40-0.03L482.40-0.03Q480.70-1.34 480.70-3.78ZM498.24-3.07L498.24-3.07L506.18-44.80L519.17-46.08L517.18-36.29L517.18-36.29Q516.48-33.28 515.58-31.17L515.58-31.17L515.58-31.17Q516.99-32.96 520.06-33.66L520.06-33.66L520.06-33.66Q520.96-33.92 522.05-33.92L522.05-33.92L522.05-33.92Q528-33.92 531.26-30.30L531.26-30.30L531.26-30.30Q534.53-26.69 534.53-19.71L534.53-19.71L534.53-19.71Q534.53-10.62 529.34-4.93L529.34-4.93L529.34-4.93Q523.78 1.28 513.66 1.28L513.66 1.28L513.66 1.28Q506.69 1.28 501.44-1.02L501.44-1.02L501.44-1.02Q499.58-1.86 498.24-3.07ZM514.50-22.40L511.10-3.65L511.10-3.65Q512.45-2.50 514.11-2.50L514.11-2.50L514.11-2.50Q515.78-2.50 516.74-3.14L516.74-3.14L516.74-3.14Q517.70-3.78 518.40-5.06L518.40-5.06L518.40-5.06Q520.32-8.51 521.86-19.07L521.86-19.07L521.86-19.07Q522.30-22.08 522.30-25.09L522.30-25.09L522.30-25.09Q522.30-28.10 521.63-29.06L521.63-29.06L521.63-29.06Q520.96-30.02 519.68-30.02L519.68-30.02L519.68-30.02Q515.78-30.02 514.50-22.40L514.50-22.40ZM558.40-17.98L558.40-17.98L558.40-17.98Q560.70-22.08 560.70-26.24L560.70-26.24L560.70-26.24Q560.70-28.99 558.72-28.99L558.72-28.99L558.72-28.99Q557.18-28.99 555.58-26.37L555.58-26.37L555.58-26.37Q553.92-23.74 553.41-20.35L553.41-20.35L550.08 0L536.83 1.28L543.36-32.64L553.92-33.92L552.77-27.46L552.77-27.46Q555.90-33.92 562.94-33.92L562.94-33.92L562.94-33.92Q566.66-33.92 568.67-32L568.67-32L568.67-32Q570.69-30.08 570.69-26.14L570.69-26.14L570.69-26.14Q570.69-22.21 568.10-19.71L568.10-19.71L568.10-19.71Q565.50-17.22 561.09-17.22L561.09-17.22L561.09-17.22Q559.17-17.22 558.40-17.98Z"></path></g></g><style>text {
  font-size: 42px;
  font-family: Arial Black;
  dominant-baseline: central;
  text-anchor: middle;
}</style></svg>
